# xmcd
#
# Track frame offsets:
#	150
#	14070
#	30437
#	54448
#	72604
#	89028
#	108246
#	123251
#	133686
#	149424
#	165262
#	182542
#	202037
#	220363
#	240612
#	272793
#	294353
#	313938
#	326873
#
# Disc length: 4575 seconds
#
# Revision: 1
# Processed by: cddbd v1.5.2PL0 Copyright (c) Steve Scherf et al.
# Submitted via: EasyCDDAExtractor 15.3.0.1
#
DISCID=2811dd13
DTITLE=Gloria Trevi - Gloria En Vivo (Deluxe Edition)
DYEAR=2012
DGENRE=Latin
TTITLE0=Gloria
TTITLE1=Con Los Ojos Cerrados
TTITLE2=Psicofonia
TTITLE3=Vestida De Azucar
TTITLE4=Recostada En La Cama
TTITLE5=Esa Hembra Es Mala
TTITLE6=Siempre A Mi
TTITLE7=Pelo Suelto
TTITLE8=La Papa Sin Catsup
TTITLE9=Todos Me Miran
TTITLE10=El Favor De La Soledad
TTITLE11=Cinco Minutos
TTITLE12=Me Rio De Ti
TTITLE13=El Recuento De Los Daños
TTITLE14=Dr. Psiquiatra
TTITLE15=Mañana
TTITLE16=Gloria
TTITLE17=Punto G
TTITLE18=Autoerotica
EXTD=
EXTT0=
EXTT1=
EXTT2=
EXTT3=
EXTT4=
EXTT5=
EXTT6=
EXTT7=
EXTT8=
EXTT9=
EXTT10=
EXTT11=
EXTT12=
EXTT13=
EXTT14=
EXTT15=
EXTT16=
EXTT17=
EXTT18=
PLAYORDER=
